# xmcd CD database file
#
# Track frame offsets:
#	150
#	15227
#	33199
#	47606
#	73348
#	85098
#	106160
#	123915
#	139229
#	148776
#	170815
#	188286
#	201557
#	224516
#	242939
#	257208
#
# Disc length: 3643 seconds
#
# Revision: 0
# Processed by: cddbd v1.5.2PL0 Copyright (c) Steve Scherf et al.
# Submitted via: ACXtractor (MTCDDB.DLL V2003.07.15)
#
DISCID=eb0e3910
DTITLE=Jeff Brown - Wanderin' Man
DYEAR=2016
DGENRE=Country
TTITLE0=kamikaze Kangaroo
TTITLE1=The Drovers Boy
TTITLE2=Pretty Bush Sheila
TTITLE3=Orchid Street with Ann Kirkpatrick
TTITLE4=Bush Oysters
TTITLE5=Logan
TTITLE6=Old Country's Clothes
TTITLE7=God Will Prevail
TTITLE8=Billy Song Monologue
TTITLE9=The Ballad of Billy Sing
TTITLE10=Pozieres
TTITLE11=Petticoat Rule with Chad Morgan
TTITLE12=In the Bed He'd Never Leave
TTITLE13=God Given Rain
TTITLE14=Life's a Privilege
TTITLE15=Wanderin' Man
EXTD=ID3G:   2 YEAR: 2016
EXTT0=
EXTT1=
EXTT2=
EXTT3=
EXTT4=
EXTT5=
EXTT6=
EXTT7=
EXTT8=
EXTT9=
EXTT10=
EXTT11=
EXTT12=
EXTT13=
EXTT14=
EXTT15=
PLAYORDER=
